<!DOCTYPE svg PUBLIC "-//W3C//DTD SVG 20000303 Stylable//EN" "http://www.w3.org/TR/2000/03/WD-SVG-20000303/DTD/svg-20000303-stylable.dtd"[]><svg xmlns="http://www.w3.org/2000/svg" width="64px" height="64px" viewBox="0 0 250 250"><path style="fill:none;stroke:#4c4c4c;stroke-width:2" d="M125,21 l0,-21" /><path style="fill:none;stroke:#4c4c4c;stroke-width:2" d="M21,126 l-21,0" /><path style="fill:none;stroke:#4c4c4c;stroke-width:2" d="M229,125 l21,0" /><path style="fill:none;stroke:#4c4c4c;stroke-width:2" d="M104,125 l-41,0" /><path style="fill:none;stroke:#4c4c4c;stroke-width:2" d="M146,125 l41,0" /><path style="fill:none;stroke:#4c4c4c;stroke-width:2" d="M125,104 l0,-41" /><path style="fill:none;stroke:#4c4c4c;stroke-width:2" d="M125,146 l0,42" /><path style="fill:none;stroke:#4c4c4c;stroke-width:2" d="M125,229 l0,21" /><path style="fill:none;stroke:#4c4c4c;stroke-width:2" d="M166,29 l5,2 4,2 5,3 4,2 4,3 5,3 3,4 4,3" /><path style="fill:none;stroke:#4c4c4c;stroke-width:2" d="M86,29 l5,-2 4,-1 5,-2 5,-1 5,-1 6,0 5,-1 5,0" /><path style="fill:none;stroke:#4c4c4c;stroke-width:2" d="M29,85 l2,-4 2,-5 3,-4 3,-4 3,-5 3,-4 3,-3 4,-4" /><path style="fill:none;stroke:#4c4c4c;stroke-width:2" d="M29,165 l-2,-5 -1,-4 -2,-5 -1,-5 -1,-5 0,-6 -1,-5 0,-5" /><path style="fill:none;stroke:#4c4c4c;stroke-width:2" d="M86,221 l-4,-2 -5,-2 -4,-3 -5,-3 -4,-2 -4,-3 -4,-4 -4,-3" /><path style="fill:none;stroke:#4c4c4c;stroke-width:2" d="M167,221 l-5,2 -4,1 -6,2 -5,1 -5,1 -5,0 -5,1 -5,0" /><path style="fill:none;stroke:#4c4c4c;stroke-width:2" d="M224,165 l-2,4 -2,5 -3,4 -3,5 -3,4 -3,4 -4,3 -3,4" /><path style="fill:none;stroke:#4c4c4c;stroke-width:2" d="M221,85 l2,5 1,5 2,5 1,5 1,5 0,5 1,5 0,5" /></svg>