<!DOCTYPE svg PUBLIC "-//W3C//DTD SVG 20000303 Stylable//EN" "http://www.w3.org/TR/2000/03/WD-SVG-20000303/DTD/svg-20000303-stylable.dtd"[]><svg xmlns="http://www.w3.org/2000/svg" width="64px" height="64px" viewBox="0 0 311 104"><path style="fill:#0ff;stroke:#4c4c4c;stroke-width:2" d="M207,0 l104,0 0,104 -104,0 0,-104z" /><path style="fill:#0ff;stroke:#4c4c4c;stroke-width:2" d="M103,78 l104,0 0,26 -104,0 0,-26z" /><path style="fill:#0ff;stroke:#4c4c4c;stroke-width:2" d="M103,0 l104,0 0,78 -104,0 0,-78z" /><path style="fill:#0ff;stroke:#4c4c4c;stroke-width:2" d="M0,0 l103,0 0,104 -103,0 0,-104z" /><circle style="fill:#0ff;stroke:#4c4c4c;stroke-width:2" cx="155" cy="40" r="23" /><path style="fill:none;stroke:#4c4c4c;stroke-width:2" d="M258,104 l-32,-51 65,0 -33,-53" /><path style="fill:none;stroke:#4c4c4c;stroke-width:2" d="M51,104 l-32,-51 64,0 -32,-53" /><path style="fill:none;stroke:#4c4c4c;stroke-width:2" d="M166,20 l6,34" /><path style="fill:none;stroke:#4c4c4c;stroke-width:2" d="M138,54 l6,-34" /></svg>