<!DOCTYPE svg PUBLIC "-//W3C//DTD SVG 20000303 Stylable//EN" "http://www.w3.org/TR/2000/03/WD-SVG-20000303/DTD/svg-20000303-stylable.dtd"[]><svg xmlns="http://www.w3.org/2000/svg" width="64px" height="64px" viewBox="0 0 250 250"><path style="fill:none;stroke:#4c4c4c;stroke-width:2" d="M0,0 l250,0 0,250 -250,0 0,-250" /><path style="fill:#0ff;stroke:#4c4c4c;stroke-width:2" d="M0,250 l47,-46 156,0 47,46 -250,0z" /><path style="fill:#0ff;stroke:#4c4c4c;stroke-width:2" d="M47,47 l156,0 0,157 -156,0 0,-157z" /><path style="fill:#0ff;stroke:#4c4c4c;stroke-width:2" d="M0,0 l47,47 0,157 -47,46 0,-250z" /><path style="fill:#0ff;stroke:#4c4c4c;stroke-width:2" d="M250,0 l-47,47 -156,0 -47,-47 250,0z" /><path style="fill:#0ff;stroke:#4c4c4c;stroke-width:2" d="M250,250 l-47,-46 0,-157 47,-46 0,249z" /></svg>