<!DOCTYPE svg PUBLIC "-//W3C//DTD SVG 20000303 Stylable//EN" "http://www.w3.org/TR/2000/03/WD-SVG-20000303/DTD/svg-20000303-stylable.dtd"[]><svg xmlns="http://www.w3.org/2000/svg" width="64px" height="64px" viewBox="0 0 909 389"><path style="fill:none;stroke:#4c4c4c;stroke-width:2" d="M786,350 l0,-218" /><path style="fill:none;stroke:#4c4c4c;stroke-width:2" d="M696,242 l180,0" /><circle style="fill:#0ff;stroke:#4c4c4c;stroke-width:2" cx="786" cy="241" r="71" /><path style="fill:#0ff;stroke:#4c4c4c;stroke-width:2" d="M58,235 l-58,-1 0,-212 192,0 30,3 27,9 25,13 22,19 19,22 13,25 9,27 3,30 -3,30 -9,28 -13,25 -19,22 -22,18 -25,14 -27,9 -30,3 -21,-2 -21,-4 -19,-7 -18,-10 -17,-12 -15,-14 -13,-17 -10,-18z" /><path style="fill:#0ff;stroke:#4c4c4c;stroke-width:2" d="M275,279 l-11,6 -12,5 -11,4 -12,3 -13,3 -12,2 -12,1 -12,0 -8,0 -8,0 -7,-1 -8,-1 -7,-1 -8,-1 -6,-2 -7,-2 -17,56 189,-1 -18,-71z" /><path style="fill:#0ff;stroke:#4c4c4c;stroke-width:2" d="M0,351 l909,0 0,38 -909,0 0,-38z" /><path style="fill:#0ff;stroke:#4c4c4c;stroke-width:2" d="M691,331 l24,0 0,19 -24,0 0,-19z" /><path style="fill:#0ff;stroke:#4c4c4c;stroke-width:2" d="M857,331 l24,0 0,19 -24,0 0,-19z" /><path style="fill:#0ff;stroke:#4c4c4c;stroke-width:2" d="M682,331 l9,-18 190,0 9,18 -208,0z" /><path style="fill:none;stroke:#4c4c4c;stroke-width:2" d="M785,271 l-596,-44 -9,-1 -9,-3 -8,-4 -6,-6 -6,-6 -4,-8 -3,-9 -1,-9 1,-9 3,-9 4,-8 6,-7 6,-6 8,-4 9,-3 9,-1 2,0 3,0 2,0 2,0 588,79 11,2 9,6 6,10 2,11 -2,11 -6,9 -10,6 -11,3" /><circle style="fill:#0ff;stroke:#4c4c4c;stroke-width:2" cx="785" cy="241" r="28" /><circle style="fill:#0ff" cx="189" cy="180" r="46" /><path style="fill:none;stroke:#4c4c4c;stroke-width:2" d="M786,270 l0,-57" /><path style="fill:none;stroke:#4c4c4c;stroke-width:2" d="M758,242 l56,0" /><path style="fill:none;stroke:#4c4c4c;stroke-width:2" d="M190,114 l0,-19" /><path style="fill:none;stroke:#4c4c4c;stroke-width:2" d="M190,209 l0,-57" /><path style="fill:none;stroke:#4c4c4c;stroke-width:2" d="M161,180 l57,0" /><path style="fill:none;stroke:#4c4c4c;stroke-width:2" d="M190,265 l0,-19" /><path style="fill:none;stroke:#4c4c4c;stroke-width:2" d="M113,180 l19,0" /><path style="fill:none;stroke:#4c4c4c;stroke-width:2" d="M246,180 l19,0" /><path style="fill:none;stroke:#4c4c4c;stroke-width:2" d="M0,255 l0,-255" /><circle style="fill:none;stroke:#4c4c4c;stroke-width:2" cx="189" cy="180" r="46" /></svg>